PathFileType	4	(X/Y/Z)	./resultDataOpenSim/trcMotMarkerGrf/sub06/qtm-12-06.trc
DataRate	CameraRate	NumFrames	NumMarkers	Units	OrigDataRate	OrigDataStartFrame	OrigNumFrames
250.000000	250.000000	8	24	m	250.000000	202	538
Frame#	Time	L.Toe.Tip			R.Toe.Tip			L.Ankle.Lat			R.Ankle.Lat			L.Ankle.Med			R.Ankle.Med			L.Heel			R.Heel			L.Knee.Lat			R.Knee.Lat			L.Knee.Med			R.Knee.Med			L.Thigh.Upper			R.Thigh.Upper			L.ASIS			R.ASIS			V.Sacral			L.Acromium			R.Acromium			C7			L.Elbow			R.Elbow			L.Wrist.Lat			R.Wrist.Lat
		X1	Y1	Z1	X2	Y2	Z2	X3	Y3	Z3	X4	Y4	Z4	X5	Y5	Z5	X6	Y6	Z6	X7	Y7	Z7	X8	Y8	Z8	X9	Y9	Z9	X10	Y10	Z10	X11	Y11	Z11	X12	Y12	Z12	X13	Y13	Z13	X14	Y14	Z14	X15	Y15	Z15	X16	Y16	Z16	X17	Y17	Z17	X18	Y18	Z18	X19	Y19	Z19	X20	Y20	Z20	X21	Y21	Z21	X22	Y22	Z22	X23	Y23	Z23	X24	Y24	Z24

202	0.804	0.10258309	0.0094270001	-0.027668576	-0.43985867	0.10441026	0.13577092	-0.019013046	0.040834633	-0.056779076	-0.44665591	0.24574771	0.15277412	-0.023842711	0.056233755	0.030782312	-0.40575892	0.22802804	0.07422705	-0.097414037	0.015907118	-0.014876948	-0.47065714	0.28527425	0.085237379	0.065812166	0.40377222	-0.085730204	-0.10067504	0.37638195	0.20827214	0.038379527	0.40757613	0.033274438	-0.09793202	0.35472296	0.074832677	-0.077686664	0.77251991	-0.16277828	-0.16631152	0.7324522	0.17225974	-0.023803498	0.81263369	-0.10354643	-0.062122551	0.79543712	0.14073559	-0.23210592	0.87727485	-0.0042929001	-0.10069683	1.2766331	-0.18277495	-0.11304619	1.2767543	0.18099667	-0.19253854	1.3156618	-0.0046937226	-0.18047117	0.97184063	-0.21416972	-0.12849465	0.95634923	0.25753218	-0.10362939	0.75174453	-0.28328409	0.087285677	0.83559386	0.23527724
203	0.808	0.10252856	0.0094592826	-0.027720165	-0.42198604	0.10556579	0.13594777	-0.019029169	0.040910137	-0.056812738	-0.43108718	0.24663836	0.15288458	-0.024002547	0.056307513	0.030763145	-0.39021145	0.22959513	0.074212476	-0.097475945	0.01597893	-0.014907376	-0.45613951	0.28594122	0.085635463	0.067392145	0.40367057	-0.085558337	-0.086429176	0.37924497	0.20801665	0.038267137	0.40809831	0.033182295	-0.083758344	0.35723492	0.074354661	-0.072076855	0.77397255	-0.16341557	-0.15961992	0.73459411	0.17167391	-0.018428619	0.81418968	-0.1043836	-0.055971385	0.79779369	0.14018155	-0.22591591	0.87930636	-0.0051648151	-0.093607245	1.2788049	-0.18272225	-0.10734524	1.2786204	0.18114338	-0.18593877	1.3177006	-0.0049291069	-0.17143117	0.97300534	-0.2144179	-0.12456189	0.9582145	0.25616811	-0.091395317	0.75397017	-0.28324733	0.088736074	0.83312057	0.23610525
204	0.812	0.10247438	0.009492854	-0.027759082	-0.4038756	0.106523	0.13609144	-0.019040472	0.040991749	-0.056829641	-0.415422	0.24732199	0.15305364	-0.024209468	0.05637732	0.030739891	-0.37462858	0.23095355	0.074111153	-0.097550275	0.016050057	-0.014951618	-0.4416077	0.28630067	0.08606054	0.06876524	0.40363193	-0.085354752	-0.072236528	0.38233924	0.20767364	0.038199565	0.40859974	0.033141602	-0.069695742	0.3599538	0.073771657	-0.066645544	0.77541227	-0.16405194	-0.15294433	0.73676303	0.17116744	-0.012971649	0.81586336	-0.10519496	-0.049765038	0.80021951	0.13961544	-0.21974211	0.88141313	-0.0058815712	-0.086589652	1.2810894	-0.1826569	-0.1016797	1.2805706	0.18129192	-0.17938114	1.3197644	-0.0051351123	-0.16235314	0.97425019	-0.21476791	-0.12069959	0.96020895	0.25485717	-0.079077232	0.75637076	-0.2831227	0.090045385	0.83075065	0.23694036
205	0.816	0.10240968	0.009514153	-0.027779867	-0.38551889	0.10731587	0.13622998	-0.019045189	0.041073623	-0.05682441	-0.39950031	0.247871	0.15338207	-0.024434486	0.056481266	0.030664372	-0.35905569	0.23208342	0.0740199	-0.097629382	0.016114055	-0.014993317	-0.42704102	0.28634341	0.086507167	0.069919803	0.40366053	-0.085159812	-0.058108037	0.38566124	0.20724647	0.03816118	0.40904313	0.033129262	-0.055676328	0.36290909	0.073160041	-0.061487087	0.77682811	-0.16465596	-0.14617243	0.73895881	0.17077588	-0.0074672911	0.81764067	-0.10598138	-0.043636046	0.80267804	0.13911561	-0.21379872	0.88361169	-0.0064094927	-0.079650435	1.2834733	-0.18257706	-0.096029509	1.2825899	0.18143454	-0.17286833	1.321858	-0.005313691	-0.15325034	0.9756162	-0.21528143	-0.11698128	0.96231163	0.25361979	-0.06666019	0.75893342	-0.28290876	0.091217899	0.82849685	0.23779138
206	0.82	0.10233299	0.0095248974	-0.027794466	-0.36690818	0.1079727	0.13640531	-0.019063184	0.041150198	-0.056817295	-0.38324625	0.2483082	0.15393818	-0.024652296	0.056639515	0.030518018	-0.34349318	0.23297807	0.073974941	-0.097703144	0.016167274	-0.015012324	-0.41240706	0.28607431	0.086971275	0.070848808	0.40375775	-0.085002658	-0.044064946	0.38920912	0.20673892	0.038093639	0.40939772	0.033099766	-0.041652387	0.36614775	0.07253036	-0.056533659	0.77823161	-0.16518212	-0.13918542	0.7412203	0.17055323	-0.001985754	0.819491	-0.10674089	-0.037669823	0.8051547	0.13869852	-0.20786269	0.88584208	-0.0067502944	-0.072809443	1.2859462	-0.1824726	-0.090374043	1.2846647	0.18156399	-0.16640128	1.3239839	-0.0054698367	-0.14426166	0.97714707	-0.21579553	-0.11343845	0.96451151	0.252445	-0.054159512	0.76165235	-0.28260261	0.092261593	0.8263739	0.23866416
207	0.824	0.10224982	0.0095317724	-0.027815462	-0.34807155	0.10848414	0.13662579	-0.019126719	0.041221778	-0.056848716	-0.36685585	0.24852761	0.15463773	-0.024854213	0.05683924	0.030327283	-0.32784146	0.23363987	0.073943275	-0.097775665	0.016211359	-0.015018445	-0.39773086	0.28549436	0.087445369	0.071545918	0.40391932	-0.084898021	-0.03012662	0.39297619	0.20615767	0.037947754	0.40965776	0.033014792	-0.027634734	0.36969486	0.071819532	-0.051649702	0.77964819	-0.16562295	-0.13182126	0.74357504	0.1706236	0.0034412259	0.82138861	-0.10746928	-0.031843174	0.80766454	0.13833066	-0.20149623	0.8880007	-0.0066713984	-0.066064237	1.2884972	-0.18234443	-0.084693428	1.2867833	0.18167137	-0.15997995	1.3261381	-0.0056075331	-0.13545249	0.97884381	-0.21619899	-0.10998974	0.96680671	0.25129992	-0.041608773	0.7645214	-0.28219951	0.093153598	0.8243985	0.23956996
208	0.828	0.10216585	0.009539569	-0.027848628	-0.32906489	0.10881629	0.13685762	-0.019253994	0.041294216	-0.056943483	-0.35065908	0.24837207	0.15527879	-0.025035479	0.057059669	0.030132974	-0.31200123	0.23407277	0.073890891	-0.09786629	0.016255802	-0.015055638	-0.38309712	0.28459945	0.087924791	0.072016798	0.40413534	-0.084849765	-0.016302897	0.3969454	0.20550609	0.037744142	0.40985496	0.032879296	-0.013629046	0.37353124	0.070989316	-0.046824213	0.78109215	-0.16602855	-0.12410003	0.74605187	0.17104349	0.0088652652	0.82332487	-0.10814359	-0.026045426	0.81022797	0.13795858	-0.19460615	0.89007795	-0.0059289664	-0.059360119	1.2911094	-0.18222367	-0.078974708	1.2889333	0.18174988	-0.15360184	1.328311	-0.0057274922	-0.12671319	0.98066313	-0.21652075	-0.10648956	0.96919605	0.25016099	-0.029029835	0.76752865	-0.28169633	0.093831135	0.82258349	0.24052662
209	0.832	0.10208341	0.0095502993	-0.027894371	-0.30991872	0.10895775	0.13707924	-0.01943106	0.041374989	-0.057085053	-0.33476636	0.24779415	0.15572387	-0.025180494	0.057291742	0.029964707	-0.29598872	0.23427916	0.073877155	-0.097975796	0.016315966	-0.015132547	-0.36857374	0.28339741	0.088421939	0.072295052	0.40439053	-0.084848236	-0.0025972845	0.40109492	0.20477861	0.037539264	0.41002757	0.032725409	0.00035775908	0.37761054	0.07006316	-0.042161457	0.78255257	-0.16645355	-0.11653269	0.74870115	0.17163812	0.014421067	0.82531084	-0.10871351	-0.02015932	0.81285214	0.13753343	-0.18758628	0.89217979	-0.0048322252	-0.052634655	1.2937601	-0.18214879	-0.073214992	1.2911014	0.18179826	-0.14725895	1.3304908	-0.0058313646	-0.11785952	0.98254427	-0.21671698	-0.10286753	0.97167069	0.24903879	-0.016422087	0.77066419	-0.28109001	0.094264245	0.82092924	0.24154027
